<svg width="10" height="15" viewBox="0 0 10 15" fill="none" xmlns="http://www.w3.org/2000/svg">
<path d="M8.02344 14.3984C8.625 14.3984 9.11719 13.9141 9.11719 13.3125C9.11719 13.0156 8.99219 12.7344 8.77344 12.5234L3.46094 7.35156L8.77344 2.19531C8.99219 1.97656 9.11719 1.69531 9.11719 1.40625C9.11719 0.804687 8.625 0.320312 8.02344 0.320312C7.71875 0.320312 7.46875 0.421875 7.26562 0.625L1.27344 6.48437C1.00781 6.74219 0.875 7.02344 0.875 7.35937C0.875 7.6875 1 7.96875 1.27344 8.23437L7.26562 14.0859C7.47656 14.2891 7.72656 14.3984 8.02344 14.3984Z" fill="#1D1D1D"/>
</svg>
