<svg width="19" height="16" viewBox="0 0 19 16" fill="none" xmlns="http://www.w3.org/2000/svg">
<path fill-rule="evenodd" clip-rule="evenodd" d="M16.9531 11.0234C16.9531 11.4999 16.5781 11.8124 16.1562 11.8124H7.07812C5.83594 11.8124 5.17969 11.0703 4.99219 9.83588L3.82031 1.81244H1.53125C1.07031 1.81244 0.671875 1.42181 0.671875 0.945251C0.671875 0.476501 1.07031 0.078064 1.53125 0.078064H4.14844C5.07812 0.078064 5.39844 0.453064 5.50781 1.19525L5.60938 1.92963H17.9453C18.5781 1.92963 18.9297 2.289 18.9297 2.80463C18.9297 2.89693 18.9103 3.0215 18.8951 3.11969L18.8906 3.14838L18.3359 6.88275C18.1562 8.13275 17.4922 8.87494 16.25 8.87494H6.60938L6.72656 9.67963C6.77344 10.0156 6.97656 10.2421 7.29688 10.2421H16.1562C16.5781 10.2421 16.9531 10.5546 16.9531 11.0234ZM5.83984 3.49994L6.38672 7.30463L16.0664 7.29681C16.3945 7.29681 16.5742 7.09369 16.6211 6.74994L17.0742 3.49994H5.83984ZM7.73438 15.8203C8.53906 15.8203 9.17969 15.1874 9.17969 14.3828C9.17969 13.5859 8.53906 12.9453 7.73438 12.9453C6.94531 12.9453 6.29688 13.5859 6.29688 14.3828C6.29688 15.1874 6.94531 15.8203 7.73438 15.8203ZM16.3164 14.3828C16.3164 15.1874 15.6758 15.8203 14.8789 15.8203C14.082 15.8203 13.4336 15.1874 13.4336 14.3828C13.4336 13.5859 14.082 12.9453 14.8789 12.9453C15.6758 12.9453 16.3164 13.5859 16.3164 14.3828Z" fill="#1D1D1D"/>
</svg>
