<svg width="48" height="48" viewBox="0 0 48 48" fill="none" xmlns="http://www.w3.org/2000/svg">
<path d="M20.9897 38.5925C21.8687 38.5925 22.5571 38.241 23.0405 37.5232L36.7515 16.3708C37.103 15.8435 37.2495 15.3601 37.2495 14.906C37.2495 13.7048 36.3706 12.8406 35.1401 12.8406C34.2905 12.8406 33.7778 13.1335 33.2651 13.9539L20.9312 33.4656L14.6323 25.5261C14.1343 24.9255 13.6216 24.6472 12.8892 24.6472C11.644 24.6472 10.7505 25.5261 10.7505 26.7419C10.7505 27.2693 10.9263 27.7673 11.3804 28.2947L18.9536 37.5964C19.5249 38.2849 20.1548 38.5925 20.9897 38.5925Z" fill="#1D1D1D"/>
</svg>
