<svg width="10" height="10" viewBox="0 0 10 10" fill="none" xmlns="http://www.w3.org/2000/svg">
<path d="M3.87539 9.96797C4.20352 9.96797 4.46055 9.83672 4.64102 9.56875L9.75977 1.67187C9.89102 1.475 9.9457 1.29453 9.9457 1.125C9.9457 0.676562 9.61758 0.353906 9.1582 0.353906C8.84102 0.353906 8.64961 0.463281 8.4582 0.769531L3.85352 8.05391L1.50195 5.08984C1.31602 4.86562 1.12461 4.76172 0.851172 4.76172C0.386328 4.76172 0.0527344 5.08984 0.0527344 5.54375C0.0527344 5.74062 0.118359 5.92656 0.287891 6.12344L3.11523 9.59609C3.32852 9.85313 3.56367 9.96797 3.87539 9.96797Z" fill="white"/>
</svg>
