<svg width="20" height="20" viewBox="0 0 20 20" fill="none" xmlns="http://www.w3.org/2000/svg">
<path d="M5.60098 10.845H9.98908C10.2789 10.845 10.5041 10.6229 10.5041 10.337V4.67115C10.5041 4.38121 10.2789 4.1624 9.98908 4.1624C9.71303 4.1624 9.48778 4.38121 9.48778 4.67115V9.82819H5.60098C5.30791 9.82819 5.09643 10.0535 5.09643 10.337C5.09643 10.6229 5.30791 10.845 5.60098 10.845ZM9.99634 18.3333C14.5555 18.3333 18.3333 14.5612 18.3333 9.99999C18.3333 5.43882 14.5483 1.66666 9.98908 1.66666C5.43388 1.66666 1.66663 5.43882 1.66663 9.99999C1.66663 14.5612 5.44113 18.3333 9.99634 18.3333ZM9.99634 17.106C6.06504 17.106 2.90465 13.9403 2.90465 9.99999C2.90465 6.05972 6.05778 2.89397 9.98908 2.89397C13.9276 2.89397 17.0993 6.05972 17.0993 9.99999C17.0993 13.9403 13.9349 17.106 9.99634 17.106Z" fill="#1D1D1D"/>
</svg>
