<svg width="12" height="13" viewBox="0 0 12 13" fill="none" xmlns="http://www.w3.org/2000/svg">
<path d="M11.6958 11.7373C12.0693 11.3564 12.0693 10.7338 11.7031 10.3676L7.37451 6.03902L11.7031 1.70309C12.0693 1.33687 12.0767 0.706992 11.6958 0.333457C11.3223 -0.040078 10.6924 -0.040078 10.3262 0.326133L5.99756 4.65475L1.66162 0.326133C1.31006 -0.0327538 0.665527 -0.0474022 0.291992 0.333457C-0.081543 0.706992 -0.0742188 1.35152 0.284668 1.70309L4.61328 6.03902L0.284668 10.3676C-0.0742188 10.7265 -0.081543 11.3637 0.291992 11.7373C0.672852 12.1108 1.31006 12.1035 1.66162 11.7519L5.99756 7.41598L10.3262 11.7446C10.6924 12.1108 11.3223 12.1108 11.6958 11.7373Z" fill="#1D1D1D" fill-opacity="0.24"/>
</svg>
