<svg width="15" height="10" viewBox="0 0 15 10" fill="none" xmlns="http://www.w3.org/2000/svg">
<path d="M0.609375 1.96875C0.609375 2.27344 0.71875 2.51562 0.921875 2.72656L6.77344 8.71875C7.03906 8.98437 7.3125 9.10937 7.64844 9.11719C7.98437 9.11719 8.26562 8.99219 8.52344 8.71875L14.3828 2.72656C14.5859 2.51562 14.6953 2.26562 14.6953 1.96875C14.6953 1.35938 14.2109 0.875 13.6094 0.875C13.3125 0.875 13.0312 1 12.8125 1.21875L7.64844 6.53125L2.49219 1.21875C2.27344 0.999999 1.99219 0.874999 1.69531 0.874999C1.09375 0.874999 0.609375 1.35937 0.609375 1.96875Z" fill="#1D1D1D"/>
</svg>
