<svg width="19" height="16" viewBox="0 0 19 16" fill="none" xmlns="http://www.w3.org/2000/svg">
<path d="M0 9.34768C0 11.7705 0.962747 13.9972 2.52913 15.6664C2.90121 16.0613 3.52535 16.1537 4.01622 15.6791L5.47101 14.2519C5.73257 14.0101 5.72886 13.5762 5.47101 13.3307C5.21317 13.0771 4.78025 13.0734 4.52615 13.3307L3.33664 14.5043C2.13403 13.1131 1.41257 11.324 1.41257 9.34768C1.41257 4.92779 5.01028 1.37669 9.49587 1.37669C13.9897 1.37669 17.5837 4.92779 17.5837 9.34768C17.5837 11.324 16.866 13.1131 15.6634 14.5043L14.4739 13.3307C14.2197 13.0734 13.7868 13.0771 13.529 13.3307C13.2712 13.5762 13.2674 14.0101 13.529 14.2519L14.9801 15.6791C15.4746 16.1537 16.0988 16.0613 16.4626 15.6664C18.0373 13.9972 19 11.7705 19 9.34768C19 4.22764 14.6979 0 9.49587 0C4.29841 0 0 4.22764 0 9.34768ZM3.12364 8.6919H0.708144V10.0035H3.12364C3.48744 10.0035 3.79039 9.70182 3.79039 9.34768C3.79039 8.99355 3.48744 8.6919 3.12364 8.6919ZM8.82911 3.05594C8.82911 3.42187 9.1358 3.71986 9.49587 3.71986C9.86421 3.71986 10.1709 3.42187 10.1709 3.05594V0.680188H8.82911V3.05594ZM13.5538 4.43534C13.2923 4.68528 13.296 5.11105 13.5538 5.36465C13.8117 5.61825 14.2446 5.62192 14.4987 5.36465L16.2085 3.68753L15.2673 2.76186L13.5538 4.43534ZM15.9012 8.6919C15.5291 8.6919 15.2344 8.99355 15.2344 9.34768C15.2344 9.70182 15.5291 10.0035 15.9012 10.0035H18.3167V8.6919H15.9012ZM10.6825 10.466C11.2606 9.89748 11.2606 9.06564 10.6825 8.49708C10.5765 8.38922 10.3527 8.23331 10.2144 8.13362L5.63526 4.95812C5.4271 4.81403 5.23178 4.85475 5.09439 4.97806C4.97357 5.10504 4.9359 5.30897 5.07412 5.50555L8.31102 10.0175C8.40413 10.1453 8.56719 10.37 8.66484 10.466C9.25039 11.0419 10.097 11.0419 10.6825 10.466Z" fill="#1D1D1D" fill-opacity="0.24"/>
</svg>
