<svg width="22" height="15" viewBox="0 0 22 15" fill="none" xmlns="http://www.w3.org/2000/svg">
<path d="M15.0406 14.2723C16.5746 14.2723 17.132 13.5091 17.132 12.6749C17.132 11.0723 15.829 10.3889 13.2144 10.3889C12.5135 10.3889 12.1913 10.4242 11.9526 10.4579L11.4387 9.25937C10.4602 6.96433 8.75795 6.07978 6.97703 6.07978C6.69222 6.07978 6.3727 6.07978 6.04998 6.14744C5.62954 6.22933 5.46792 6.42338 5.46792 6.67665C5.46792 6.99428 5.72726 7.20901 6.08523 7.20222C6.3905 7.20222 6.59396 7.16087 6.93075 7.16087C8.48614 7.16087 9.53405 7.99051 10.4607 10.0098L11.1822 11.6113C11.7475 11.5076 12.3282 11.4189 13.218 11.4189C14.5315 11.4189 15.7889 11.7344 15.7889 12.5526C15.7889 12.862 15.537 13.0853 15.0406 13.0853C14.3311 13.0853 13.8353 12.9364 13.2054 12.9364C12.3584 12.9364 11.7032 13.0291 11.3808 13.0291C11.0969 13.0291 10.8086 13.0125 10.5218 12.7837L7.33143 10.0966C5.04427 10.2033 3.4741 9.65639 2.55898 8.45007C1.89289 8.52997 1.39269 8.30731 1.39269 7.81515C1.39269 7.35177 1.87153 7.04242 2.609 7.06888C3.30071 4.93135 4.77013 3.96639 6.84548 3.96639C9.12179 3.96639 11.4161 5.7231 13.1858 6.59278C13.6543 6.8219 14.2307 6.9142 14.5742 6.9142C15.4917 6.9142 16.1709 6.39575 16.5707 5.40978L11.912 2.61746C11.5681 2.41447 10.9673 1.98436 10.9673 1.82868C10.9673 1.47664 11.8089 1.25464 12.4186 1.25464C13.4633 1.25464 14.293 1.83034 15.1186 2.70894L17.3835 5.13267C19.3949 5.1077 20.774 6.43876 20.774 8.16554C20.774 9.24514 20.2356 9.56343 18.8319 9.56343C17.9821 9.56343 16.9871 9.25953 16.0568 8.7874C14.7107 9.04794 13.2495 9.67608 12.1774 10.5107L13.2239 10.9552C14.238 10.4128 15.2638 10.0472 15.8674 9.87443C16.7632 10.363 17.9394 10.6369 18.789 10.6301C20.7718 10.6166 22 10.0051 22 8.15726C22 5.91053 20.2214 4.25871 17.9834 4.17697L16.5203 2.31918C15.3378 0.829476 14.0856 0 12.4008 0C11.1396 0 9.38595 0.644354 9.38595 1.67218C9.38595 2.46278 10.2489 2.9872 11.0973 3.49821C12.0355 4.06168 13.6199 4.94194 14.817 5.60415C14.7271 5.66139 14.6251 5.70506 14.4882 5.70506C14.2912 5.70506 13.9473 5.5805 13.6416 5.4078C10.7585 3.94967 9.06038 2.67867 6.85598 2.67867C4.2639 2.67867 2.39378 3.91047 1.52158 6.31303C0.603602 6.49434 0 7.06177 0 7.91887C0 8.97382 0.916897 9.53215 1.8685 9.5631C2.48955 10.5378 4.34009 11.4737 6.72764 11.2818L9.74498 13.7555C10.1549 14.0964 10.6252 14.2574 11.3525 14.2574C11.965 14.2574 12.4396 14.0986 13.2499 14.0986C14.0144 14.0986 14.4315 14.2723 15.0406 14.2723ZM6.27605 15C7.8455 15 9.27755 14.5801 10.2838 13.5037L9.26134 12.8156C8.72857 13.5 7.62781 13.9106 6.26359 13.9106C5.36289 13.9106 4.74397 13.6195 4.74397 13.1472C4.74397 12.9215 4.91467 12.7425 5.26357 12.7425C5.66638 12.7425 6.0847 12.8251 6.54876 12.8251C7.40086 12.8251 7.98594 12.7357 8.56215 12.1976L7.67587 11.4298C7.31896 11.7484 7.01458 11.8131 6.68705 11.8131C6.18313 11.8063 5.76304 11.6929 5.22742 11.6929C4.18076 11.6929 3.44615 12.2671 3.44615 13.1344C3.44615 14.3214 4.58412 15 6.27605 15ZM18.3277 7.79033C18.6975 7.79033 18.9959 7.5129 18.9959 7.1693C18.9959 6.83248 18.6975 6.54828 18.3277 6.54828C17.9653 6.54828 17.6595 6.83248 17.6595 7.1693C17.6595 7.5129 17.9653 7.79033 18.3277 7.79033Z" fill="#1D1D1D" fill-opacity="0.24"/>
</svg>
