<svg width="22" height="16" viewBox="0 0 22 16" fill="none" xmlns="http://www.w3.org/2000/svg">
<path d="M2.14661 16H4.38036C5.79691 16 6.53786 15.3194 6.53786 14.0014V6.95746C6.53786 5.63944 5.79691 4.95881 4.38036 4.95881H2.14661C0.73006 4.95881 0 5.63944 0 6.95746V14.0014C0 15.3194 0.73006 16 2.14661 16ZM2.42991 14.5415C1.76523 14.5415 1.54729 14.3471 1.54729 13.7097V7.24916C1.54729 6.61175 1.76523 6.41729 2.42991 6.41729H4.10795C4.77263 6.41729 4.99057 6.61175 4.99057 7.24916V13.7097C4.99057 14.3471 4.77263 14.5415 4.10795 14.5415H2.42991ZM9.87217 16H12.1168C13.5334 16 14.2634 15.3194 14.2634 14.0014V4.47265C14.2634 3.15462 13.5334 2.48482 12.1168 2.48482H9.87217C8.45563 2.48482 7.72558 3.15462 7.72558 4.47265V14.0014C7.72558 15.3194 8.45563 16 9.87217 16ZM10.1555 14.5415C9.49079 14.5415 9.28377 14.3471 9.28377 13.7097V4.77515C9.28377 4.13775 9.49079 3.93247 10.1555 3.93247H11.8444C12.5091 3.93247 12.7161 4.13775 12.7161 4.77515V13.7097C12.7161 14.3471 12.5091 14.5415 11.8444 14.5415H10.1555ZM17.6087 16H19.8424C21.2589 16 22 15.3194 22 14.0014V1.99865C22 0.680628 21.2589 0 19.8424 0H17.6087C16.1921 0 15.462 0.680628 15.462 1.99865V14.0014C15.462 15.3194 16.1921 16 17.6087 16ZM17.892 14.5415C17.2273 14.5415 17.0093 14.3471 17.0093 13.7097V2.29033C17.0093 1.65294 17.2273 1.45848 17.892 1.45848H19.57C20.2346 1.45848 20.4526 1.65294 20.4526 2.29033V13.7097C20.4526 14.3471 20.2346 14.5415 19.57 14.5415H17.892Z" fill="#1D1D1D" fill-opacity="0.24"/>
</svg>
