<svg width="20" height="15" viewBox="0 0 20 15" fill="none" xmlns="http://www.w3.org/2000/svg">
<path d="M4.13018 5.14636C4.05547 5.44248 4.19422 5.54459 4.51438 5.52416C5.81642 5.44248 7.40657 5.3608 9.99995 5.3608C12.5827 5.3608 14.1835 5.44248 15.4855 5.52416C15.8057 5.54459 15.9444 5.44248 15.8697 5.14636C15.6776 4.36011 15.2934 3.22669 15.0266 2.78761C14.8238 2.44043 14.6104 2.31791 14.2368 2.26686C13.6392 2.18516 12.2945 2.1239 9.99995 2.1239C7.69473 2.1239 6.3607 2.18516 5.76304 2.26686C5.38951 2.31791 5.17608 2.44043 4.96262 2.78761C4.69581 3.22669 4.31161 4.36011 4.13018 5.14636ZM3.9701 10.6195C4.77052 10.6195 5.37884 10.0374 5.37884 9.2716C5.37884 8.50578 4.77052 7.92375 3.9701 7.92375C3.16968 7.92375 2.56136 8.50578 2.56136 9.2716C2.56136 10.0374 3.16968 10.6195 3.9701 10.6195ZM7.74808 10.2621H12.2518C12.8495 10.2621 13.2657 9.85363 13.2657 9.28183C13.2657 8.71001 12.8495 8.31178 12.2518 8.31178H7.74808C7.15045 8.31178 6.73423 8.71001 6.73423 9.28183C6.73423 9.85363 7.15045 10.2621 7.74808 10.2621ZM16.0298 10.6195C16.8302 10.6195 17.4385 10.0374 17.4385 9.2716C17.4385 8.50578 16.8302 7.92375 16.0298 7.92375C15.2294 7.92375 14.6211 8.50578 14.6211 9.2716C14.6211 10.0374 15.2294 10.6195 16.0298 10.6195ZM9.99995 12.7638C12.8495 12.7638 16.5848 12.631 18.1749 12.4574C19.3489 12.3349 20 11.7018 20 10.6501V9.24099C20 7.91355 19.7331 7.13752 18.922 6.13683L18.2283 5.26889C17.9188 3.82915 17.3638 2.31791 17.0757 1.72567C16.6274 0.827098 15.7523 0.255275 14.5997 0.11232C14.0341 0.0408419 12.2305 0 9.99995 0C7.76944 0 5.95514 0.051047 5.4002 0.11232C4.24757 0.24507 3.37245 0.827098 2.92421 1.72567C2.63607 2.31791 2.0811 3.82915 1.7716 5.26889L1.07791 6.13683C0.266802 7.13752 0 7.91355 0 9.24099V10.6501C0 11.7018 0.651003 12.3349 1.82496 12.4574C3.41513 12.631 7.15045 12.7638 9.99995 12.7638ZM9.99995 11.5895C7.10776 11.5895 3.46851 11.467 2.17716 11.3138C1.47278 11.2219 1.23799 10.8645 1.23799 10.2621V9.24099C1.23799 8.14841 1.41942 7.65827 2.04908 6.86181L2.92421 5.77944C3.12699 4.67665 3.67127 3.03268 4.04481 2.26686C4.30095 1.73588 4.81321 1.39892 5.54959 1.31722C6.09389 1.25596 7.75877 1.17426 9.99995 1.17426C12.2411 1.17426 13.9487 1.25596 14.4289 1.31722C15.1974 1.40913 15.6883 1.74608 15.9551 2.26686C16.3286 3.03268 16.8622 4.67665 17.0757 5.77944L17.9401 6.86181C18.5805 7.65827 18.7619 8.14841 18.7619 9.24099V10.2621C18.7619 10.8645 18.5164 11.2321 17.8228 11.3138C16.5314 11.467 12.8815 11.5895 9.99995 11.5895ZM1.54748 15H2.55067C3.19101 15 3.68194 14.5405 3.68194 13.9381V11.9367L0.426904 11.4772V13.9381C0.426904 14.5405 0.917809 15 1.54748 15ZM17.4492 15H18.4417C19.0821 15 19.573 14.5405 19.573 13.9381V11.4772L16.3179 11.9367V13.9381C16.3179 14.5405 16.8089 15 17.4492 15Z" fill="#1D1D1D" fill-opacity="0.24"/>
</svg>
