<svg width="20" height="20" viewBox="0 0 20 20" fill="none" xmlns="http://www.w3.org/2000/svg">
<path d="M4.72122 11.014H9.98694C10.3347 11.014 10.605 10.7475 10.605 10.4044V3.60538C10.605 3.25746 10.3347 2.99488 9.98694 2.99488C9.65568 2.99488 9.38539 3.25746 9.38539 3.60538V9.79383H4.72122C4.36954 9.79383 4.11576 10.0642 4.11576 10.4044C4.11576 10.7475 4.36954 11.014 4.72122 11.014ZM9.99565 20C15.4667 20 20 15.4734 20 10C20 4.52659 15.458 0 9.98694 0C4.5207 0 0 4.52659 0 10C0 15.4734 4.52941 20 9.99565 20ZM9.99565 18.5272C5.27809 18.5272 1.48562 14.7283 1.48562 10C1.48562 5.27167 5.26938 1.47276 9.98694 1.47276C14.7132 1.47276 18.5192 5.27167 18.5192 10C18.5192 14.7283 14.7219 18.5272 9.99565 18.5272Z" fill="#1D1D1D" fill-opacity="0.24"/>
</svg>
