<svg width="12" height="19" viewBox="0 0 12 19" fill="none" xmlns="http://www.w3.org/2000/svg">
<path fill-rule="evenodd" clip-rule="evenodd" d="M11.6406 8.53902L4.15625 18.0156C3.57812 18.75 2.64062 18.2734 2.97656 17.375L5.27344 11.2031H0.765625C0.40625 11.2031 0.140625 10.9531 0.140625 10.6093C0.140625 10.414 0.21875 10.2421 0.359375 10.0625L7.84375 0.578083C8.42188 -0.156292 9.35156 0.32027 9.02344 1.21871L6.72656 7.3984H11.2344C11.5938 7.3984 11.8594 7.6484 11.8594 7.99215C11.8594 8.17965 11.7812 8.35152 11.6406 8.53902ZM7.36328 9.85938L5.27734 14.3516L9.53516 8.74219H4.64453L6.72266 4.24219L2.47266 9.85938H7.36328Z" fill="#1D1D1D" fill-opacity="0.24"/>
</svg>
