<svg width="18" height="18" viewBox="0 0 18 18" fill="none" xmlns="http://www.w3.org/2000/svg">
<path fill-rule="evenodd" clip-rule="evenodd" d="M11.1875 16.8671C11.0312 17.5234 10.4844 17.9531 9.78906 17.9531H8.20312C7.51562 17.9531 6.96875 17.5234 6.8125 16.8671L6.50781 15.5624L6.34375 15.4999L5.20312 16.2031C4.625 16.5624 3.92969 16.4687 3.45312 15.9765L2.35156 14.8828C1.85938 14.3828 1.77344 13.7031 2.13281 13.1328L2.83594 11.9999L2.78125 11.8437L1.47656 11.5312C0.828125 11.3749 0.398438 10.8281 0.398438 10.1406V8.60931C0.398438 7.92963 0.820312 7.38275 1.47656 7.21869L2.76562 6.89838L2.83594 6.73431L2.125 5.6015C1.76562 5.039 1.85156 4.35931 2.34375 3.8515L3.44531 2.74994C3.92188 2.26556 4.60938 2.17181 5.19531 2.53119L6.32812 3.2265L6.50781 3.15619L6.8125 1.8515C6.96875 1.19525 7.51562 0.765564 8.20312 0.765564H9.78906C10.4844 0.765564 11.0312 1.19525 11.1875 1.8515L11.4844 3.15619L11.6641 3.2265L12.8047 2.53119C13.3828 2.17181 14.0703 2.26556 14.5547 2.74994L15.6484 3.8515C16.1406 4.35931 16.2344 5.039 15.8672 5.6015L15.1641 6.73431L15.2266 6.89838L16.5156 7.21869C17.1719 7.37494 17.6016 7.92963 17.6016 8.60931V10.1406C17.6016 10.8281 17.1719 11.3671 16.5156 11.5312L15.2188 11.8437L15.1562 11.9999L15.8672 13.1328C16.2266 13.7031 16.1406 14.3828 15.6484 14.8828L14.5469 15.9765C14.0625 16.4687 13.375 16.5624 12.7969 16.2031L11.6562 15.4999L11.4844 15.5624L11.1875 16.8671ZM8.46094 16.3516H9.53906C9.67188 16.3516 9.72656 16.2969 9.75 16.1797L10.2109 14.2734C10.7578 14.1484 11.2109 13.9531 11.6406 13.6797L13.3125 14.7031C13.4062 14.7656 13.5 14.7578 13.5938 14.6719L14.3359 13.9219C14.4297 13.8359 14.4297 13.7422 14.3672 13.6484L13.3359 11.9766C13.5859 11.5703 13.7969 11.0703 13.9062 10.5625L15.8281 10.1094C15.9453 10.0859 16 10.0234 16 9.89844V8.85156C16 8.71094 15.9453 8.65625 15.8281 8.63281L13.9141 8.17187C13.7969 7.64844 13.5703 7.14062 13.3516 6.75L14.375 5.08594C14.4375 4.98438 14.4375 4.89062 14.3516 4.80469L13.6016 4.0625C13.5 3.97656 13.4219 3.96875 13.3125 4.03125L11.6484 5.04688C11.2266 4.79688 10.7422 4.57812 10.2109 4.46094L9.75 2.53906C9.72656 2.42188 9.67188 2.36719 9.53906 2.36719H8.46094C8.32812 2.36719 8.26562 2.42188 8.25 2.53906L7.78906 4.44531C7.26562 4.57812 6.71094 4.80469 6.34375 5.04688L4.67969 4.02344C4.57031 3.96094 4.48438 3.96875 4.39062 4.0625L3.64062 4.79688C3.54688 4.88281 3.55469 4.97656 3.61719 5.08594L4.64844 6.75C4.42188 7.14062 4.19531 7.64844 4.07812 8.17969L2.17188 8.63281C2.04688 8.65625 1.99219 8.71094 1.99219 8.85156V9.89844C1.99219 10.0234 2.05469 10.0859 2.17188 10.1094L4.08594 10.5625C4.19531 11.0703 4.41406 11.5625 4.65625 11.9766L3.625 13.6484C3.5625 13.75 3.5625 13.8437 3.64844 13.9297L4.39844 14.6797C4.49219 14.7656 4.58594 14.7734 4.67969 14.7109L6.35156 13.6797C6.77344 13.9531 7.27344 14.1562 7.78906 14.2734L8.25 16.1797C8.26562 16.2969 8.32812 16.3516 8.46094 16.3516ZM8.99609 12.3203C10.6133 12.3203 11.9414 10.9844 11.9414 9.35938C11.9414 7.74219 10.6133 6.42188 8.99609 6.42188C7.37109 6.42188 6.03516 7.74219 6.03516 9.35938C6.03516 10.9844 7.37109 12.3203 8.99609 12.3203ZM7.51172 9.35938C7.51172 10.1875 8.18359 10.8594 9.00391 10.8594C9.80859 10.8594 10.4805 10.1797 10.4805 9.35938C10.4805 8.55469 9.80859 7.875 9.00391 7.875C8.19141 7.875 7.51172 8.54688 7.51172 9.35938Z" fill="#1D1D1D" fill-opacity="0.24"/>
</svg>
