<svg width="19" height="21" viewBox="0 0 19 21" fill="none" xmlns="http://www.w3.org/2000/svg">
<path d="M0.144664 17.5125C-0.382427 19.6957 0.551213 21 2.61283 21H16.3872C18.4488 21 19.3824 19.6957 18.8553 17.5125L16.8207 8.97244C16.4509 7.42384 15.3327 6.53264 13.766 6.53264H5.23402C3.6575 6.53264 2.5491 7.42384 2.17932 8.97244L0.144664 17.5125ZM2.11962 17.6612L4.09245 9.64794C4.25978 8.94995 4.65631 8.62491 5.32449 8.62491H13.6755C14.3437 8.62491 14.7402 8.94995 14.9075 9.64794L16.8804 17.6612C17.0835 18.4893 16.7522 18.9077 16.0754 18.9077H2.9246C2.24784 18.9077 1.91648 18.4893 2.11962 17.6612ZM8.48375 8.11622H10.5163V4.86005H8.48375V8.11622ZM9.49999 5.88428C11.0639 5.88428 12.3718 4.55434 12.3718 2.95438C12.3718 1.34219 11.0617 0 9.49999 0C7.93828 0 6.62053 1.34219 6.62053 2.95438C6.62053 4.55434 7.93828 5.88428 9.49999 5.88428ZM9.49999 4.14347C8.8626 4.14347 8.32955 3.59735 8.32955 2.95438C8.32955 2.29918 8.8626 1.74304 9.49999 1.74304C10.1395 1.74304 10.6726 2.29918 10.6726 2.95438C10.6726 3.59955 10.1395 4.14347 9.49999 4.14347Z" fill="#1D1D1D" fill-opacity="0.24"/>
</svg>
