<svg width="16" height="16" viewBox="0 0 16 16" fill="none" xmlns="http://www.w3.org/2000/svg">
<path fill-rule="evenodd" clip-rule="evenodd" d="M11.6941 3.91381C11.6941 6.12528 10.0501 7.91948 8.00553 7.91948C5.95262 7.91948 4.31697 6.13362 4.30862 3.92216C4.30028 1.76076 5.96931 -6.10352e-05 8.00553 -6.10352e-05C10.0417 -6.10352e-05 11.6941 1.74407 11.6941 3.91381ZM5.98443 3.92226C5.98443 5.27418 6.91074 6.30897 8.0123 6.30897C9.11386 6.30897 10.0318 5.25749 10.0318 3.91392C10.0318 2.61207 9.11386 1.61066 8.0123 1.61066C6.91074 1.61066 5.97609 2.62876 5.98443 3.92226ZM13.18 15.7055C14.6571 15.7055 15.3831 15.2215 15.3831 14.1867C15.3831 11.8083 12.4373 8.83746 8.00602 8.83746C3.57474 8.83746 0.628906 11.8083 0.628906 14.1867C0.628906 15.2215 1.35493 15.7055 2.84037 15.7055H13.18ZM2.42188 13.8947C2.42188 14.0366 2.48864 14.095 2.67223 14.095H13.3206C13.5042 14.095 13.571 14.0366 13.571 13.8947C13.571 12.693 11.5515 10.4482 7.99643 10.4482C4.4414 10.4482 2.42188 12.693 2.42188 13.8947Z" fill="#1D1D1D" fill-opacity="0.24"/>
</svg>
