<svg width="18" height="16" viewBox="0 0 18 16" fill="none" xmlns="http://www.w3.org/2000/svg">
<path fill-rule="evenodd" clip-rule="evenodd" d="M9.88281 14.6485C9.57812 14.8438 9.23438 15.0313 9 15.0313C8.77344 15.0313 8.42188 14.8438 8.125 14.6485C3.79688 11.836 0.984375 8.5235 0.984375 5.17194C0.984375 2.20319 3.04688 0.164124 5.63281 0.164124C7.14844 0.164124 8.32031 0.851624 9 1.85944C9.69531 0.843811 10.8516 0.164124 12.375 0.164124C14.9531 0.164124 17.0234 2.20319 17.0234 5.17194C17.0234 8.5235 14.2109 11.836 9.88281 14.6485ZM8.86719 12.9766C8.92969 13.0156 8.97656 13.0391 9 13.0391C9.03125 13.0391 9.07812 13.0156 9.14062 12.9766C12.4531 10.7656 15.1484 7.78906 15.1484 5.16406C15.1484 3.27344 13.8828 1.98438 12.1953 1.98438C10.8438 1.98438 10.1172 2.78906 9.60156 3.5C9.375 3.8125 9.22656 3.9375 9 3.9375C8.78125 3.9375 8.61719 3.8125 8.39844 3.5C7.91406 2.78125 7.16406 1.98438 5.8125 1.98438C4.125 1.98438 2.85938 3.27344 2.85938 5.16406C2.85938 7.78906 5.55469 10.7656 8.86719 12.9766Z" fill="#1D1D1D"/>
</svg>
