<svg width="48" height="48" viewBox="0 0 48 48" fill="none" xmlns="http://www.w3.org/2000/svg">
<path fill-rule="evenodd" clip-rule="evenodd" d="M27.0391 12.1251C26.9922 12.3439 26.8516 12.4845 26.6328 12.4845C26.4141 12.4845 26.2734 12.3439 26.2422 12.1251L26.2249 12.0279C25.7894 9.57776 25.7855 9.55557 23.1172 9.01575C22.8984 8.96887 22.7578 8.84387 22.7578 8.6095C22.7578 8.39075 22.8984 8.25012 23.1172 8.21887C25.7485 7.74736 25.7592 7.69042 26.2047 5.3096L26.2422 5.1095C26.2734 4.89075 26.4141 4.75012 26.6328 4.75012C26.8516 4.75012 26.9922 4.89075 27.0391 5.1095L27.074 5.29876C27.5064 7.64268 27.5144 7.68598 30.1484 8.21887C30.3672 8.25012 30.5078 8.39075 30.5078 8.6095C30.5078 8.84387 30.3672 8.96887 30.1328 9.01575C27.4824 9.51173 27.4765 9.54647 27.0495 12.0636L27.0391 12.1251ZM35.5391 30.8126C33.2422 36.0782 28.1797 39.297 22.1641 39.297C13.6016 39.297 7.52344 33.047 7.52344 24.7813C7.52344 18.6407 11.0859 13.2345 16.3828 11.0938C17.3516 10.7032 18.1484 10.8126 18.5859 11.3126C19.0078 11.797 19.0547 12.5157 18.6484 13.422C18.1328 14.547 17.7422 16.3907 17.7422 18.2345C17.7422 25.0001 22.1484 29.2345 29.0547 29.2345C30.7578 29.2345 32.2266 28.9532 33.3984 28.4532C34.2109 28.1095 34.9609 28.1876 35.3828 28.6095C35.8359 29.047 35.9766 29.8126 35.5391 30.8126ZM34.1797 23.4376C34.5391 23.4376 34.7891 23.2032 34.8359 22.8282C35.3359 18.7032 35.5078 18.5939 39.7109 17.9376C40.1172 17.8751 40.3516 17.6407 40.3516 17.2814C40.3516 16.9376 40.1172 16.7032 39.7891 16.6407L39.532 16.59C35.5156 15.7972 35.3257 15.7597 34.8359 11.7345C34.7891 11.3751 34.5391 11.1251 34.1797 11.1251C33.8359 11.1251 33.5859 11.3751 33.5391 11.7189C33.0078 15.922 32.8828 16.047 28.5859 16.6407C28.2578 16.672 28.0078 16.9376 28.0078 17.2814C28.0078 17.6251 28.2578 17.8595 28.5859 17.9376L28.7423 17.9682C32.9008 18.7812 32.9989 18.8004 33.5391 22.8595C33.5859 23.2032 33.8359 23.4376 34.1797 23.4376ZM10.9922 24.6562C10.9922 31.0156 15.6328 35.8125 22.1797 35.8125C25.5703 35.8125 28.7109 34.4531 30.6172 32.1562C30.1328 32.3125 29.2266 32.4375 28.2578 32.4375C19.9766 32.4375 14.5234 27.1094 14.5234 19.0156C14.5234 17.8906 14.6797 16.7188 14.9453 15.8906C12.4922 18.0156 10.9922 21.2344 10.9922 24.6562Z" fill="#1D1D1D"/>
</svg>
