<svg width="28" height="28" viewBox="0 0 28 28" fill="none" xmlns="http://www.w3.org/2000/svg">
<path d="M14.0046 21.8568C14.6699 21.8568 15.2168 21.3099 15.2168 20.6445V15.3398H20.5215C21.1868 15.3398 21.7337 14.8021 21.7337 14.1276C21.7337 13.4622 21.1868 12.9154 20.5215 12.9154H15.2168V7.61068C15.2168 6.94531 14.6699 6.39844 14.0046 6.39844C13.3392 6.39844 12.7923 6.94531 12.7923 7.61068V12.9154H7.48763C6.82227 12.9154 6.27539 13.4622 6.27539 14.1276C6.27539 14.8021 6.82227 15.3398 7.48763 15.3398H12.7923V20.6445C12.7923 21.3099 13.3392 21.8568 14.0046 21.8568Z" fill="#1D1D1D"/>
</svg>
