<svg width="10" height="15" viewBox="0 0 10 15" fill="none" xmlns="http://www.w3.org/2000/svg">
<path d="M1.97656 14.3984C1.375 14.3984 0.882812 13.9141 0.882812 13.3125C0.882812 13.0156 1.00781 12.7344 1.22656 12.5234L6.53906 7.35156L1.22656 2.19531C1.00781 1.97656 0.882812 1.69531 0.882812 1.40625C0.882812 0.804687 1.375 0.320312 1.97656 0.320312C2.28125 0.320312 2.53125 0.421875 2.73438 0.625L8.72656 6.48437C8.99219 6.74219 9.125 7.02344 9.125 7.35937C9.125 7.6875 9 7.96875 8.72656 8.23437L2.73438 14.0859C2.52344 14.2891 2.27344 14.3984 1.97656 14.3984Z" fill="#1D1D1D"/>
</svg>
