<svg width="20" height="20" viewBox="0 0 20 20" fill="none" xmlns="http://www.w3.org/2000/svg">
<path d="M1.66663 11.1231C1.66663 13.1421 2.46891 14.9977 3.77423 16.3887C4.0843 16.7178 4.60442 16.7948 5.01347 16.3992L6.22581 15.2099C6.44376 15.0084 6.44067 14.6468 6.22581 14.4423C6.01094 14.2309 5.65017 14.2279 5.43842 14.4423L4.44716 15.4202C3.44498 14.2609 2.84377 12.77 2.84377 11.1231C2.84377 7.43983 5.84186 4.48058 9.57985 4.48058C13.3247 4.48058 16.3197 7.43983 16.3197 11.1231C16.3197 12.77 15.7216 14.2609 14.7194 15.4202L13.7282 14.4423C13.5164 14.2279 13.1557 14.2309 12.9408 14.4423C12.7259 14.6468 12.7228 15.0084 12.9408 15.2099L14.15 16.3992C14.5622 16.7948 15.0823 16.7178 15.3855 16.3887C16.6977 14.9977 17.5 13.1421 17.5 11.1231C17.5 6.85637 13.9149 3.33334 9.57985 3.33334C5.24863 3.33334 1.66663 6.85637 1.66663 11.1231ZM4.26966 10.5766H2.25675V11.6696H4.26966C4.57282 11.6696 4.82529 11.4182 4.82529 11.1231C4.82529 10.828 4.57282 10.5766 4.26966 10.5766ZM9.02422 5.87995C9.02422 6.18489 9.2798 6.43322 9.57985 6.43322C9.8868 6.43322 10.1424 6.18489 10.1424 5.87995V3.90016H9.02422V5.87995ZM12.9615 7.02945C12.7435 7.23774 12.7466 7.59255 12.9615 7.80388C13.1764 8.01521 13.5371 8.01827 13.7489 7.80388L15.1737 6.40628L14.3894 5.63489L12.9615 7.02945ZM14.9176 10.5766C14.6076 10.5766 14.362 10.828 14.362 11.1231C14.362 11.4182 14.6076 11.6696 14.9176 11.6696H16.9305V10.5766H14.9176ZM10.5687 12.055C11.0504 11.5812 11.0504 10.888 10.5687 10.4142C10.4804 10.3244 10.2938 10.1944 10.1787 10.1114L6.36267 7.4651C6.18921 7.34503 6.02644 7.37896 5.91195 7.48172C5.81126 7.58753 5.77987 7.75748 5.89506 7.9213L8.59248 11.6813C8.67007 11.7878 8.80595 11.975 8.88733 12.055C9.37528 12.535 10.0808 12.535 10.5687 12.055Z" fill="#1D1D1D"/>
</svg>
