<svg width="20" height="20" viewBox="0 0 20 20" fill="none" xmlns="http://www.w3.org/2000/svg">
<path d="M3.61556 15H6.56221C6.40134 14.5772 6.44367 14.2463 6.63843 13.6765H3.42928C2.81118 13.6765 2.08297 13.5938 1.685 13.1618C1.28704 12.7298 1.21931 11.9485 1.21931 11.2776V8.73161C1.21931 8.05146 1.28704 7.27942 1.685 6.83823C2.08297 6.40625 2.81118 6.33272 3.43775 6.33272H7.82385L8.80608 5H3.61556C2.53174 5 1.51567 5.1011 0.79594 5.88235C0.0846735 6.65442 0 7.74816 0 8.92463V11.0754C0 12.2518 0.0846735 13.3456 0.79594 14.1268C1.51567 14.8989 2.52328 15 3.61556 15ZM9.1109 15H14.1236C15.2159 15 16.2234 14.8989 16.9433 14.1268C17.6544 13.3456 17.7392 12.2518 17.7392 11.0754V8.92463C17.7392 7.74816 17.6544 6.65442 16.9433 5.88235C16.2234 5.1011 15.2159 5 14.1236 5H11.3463C11.4987 5.4044 11.4648 5.73528 11.2785 6.33272H14.3099C14.928 6.33272 15.6562 6.40625 16.0542 6.83823C16.4522 7.27942 16.5198 8.05146 16.5198 8.73161V11.2776C16.5198 11.9485 16.4522 12.7298 16.0542 13.1618C15.6562 13.5938 14.928 13.6765 14.3099 13.6765H10.0846L9.1109 15ZM18.7298 11.9301C19.2717 11.8934 20 11.1397 20 10C20 8.86029 19.2717 8.10662 18.7298 8.06985V11.9301ZM3.00592 12.7757H6.94325L7.23113 11.9393H6.44367C5.72394 11.9393 5.13124 11.3235 5.13124 10.5239C5.13124 10.1746 5.24978 9.84375 5.45298 9.56802L7.1634 7.23345H3.00592C2.64182 7.23345 2.42168 7.27942 2.26926 7.45404C2.10837 7.62867 2.0491 7.85845 2.0491 8.26287V11.7463C2.0491 12.1415 2.10837 12.3713 2.26926 12.546C2.43014 12.7206 2.64182 12.7757 3.00592 12.7757ZM10.7451 12.7757H14.7332C15.1058 12.7757 15.3175 12.7206 15.4699 12.546C15.6308 12.3713 15.69 12.1415 15.69 11.7463V8.25368C15.69 7.85845 15.6308 7.62867 15.4784 7.45404C15.3175 7.27942 15.0973 7.23345 14.7332 7.23345H10.9652L10.6774 8.06985H11.4564C12.1846 8.06985 12.7773 8.68567 12.7773 9.4761C12.7773 9.82537 12.6587 10.1654 12.4555 10.432L10.7451 12.7757ZM6.10498 10.5239C6.10498 10.7169 6.25739 10.864 6.44367 10.864H8.64518L7.4767 14.2831C7.30735 14.7794 7.79845 15.046 8.08635 14.6507L11.668 9.77941C11.7358 9.67831 11.7781 9.5772 11.7781 9.4761C11.7781 9.28309 11.6342 9.13602 11.4479 9.13602H9.24637L10.4149 5.7261C10.5842 5.22978 10.0931 4.95405 9.80522 5.34927L6.22352 10.2206C6.15579 10.3217 6.10498 10.4228 6.10498 10.5239Z" fill="#1D1D1D"/>
</svg>
